<svg width="420" height="420" viewBox="0 0 420 420" fill="none" xmlns="http://www.w3.org/2000/svg">
<path d="M420 211.735C420 326.757 325.98 420 210 420C94.0202 420 0 326.757 0 211.735C0 96.7141 94.0202 3.47095 210 3.47095C325.98 3.47095 420 96.7141 420 211.735Z" fill="#565656"/>
<path d="M420 211.735C420 326.757 325.98 420 210 420C94.0202 420 0 326.757 0 211.735C0 96.7141 94.0202 3.47095 210 3.47095C325.98 3.47095 420 96.7141 420 211.735Z" stroke="#101010"/>
<path d="M233.8 259.637H186.2C127.278 259.637 74.3183 298.323 52.5 348.843C87.5 388.76 141.75 420 211.75 420C266 420 327.25 395.702 367.5 348.843C345.682 298.327 292.722 259.637 233.8 259.637Z" fill="#D9D9D9"/>
<path d="M209.999 70.8099C170.567 70.8099 138.599 102.513 138.599 141.62C138.599 180.727 170.567 212.43 209.999 212.43C249.432 212.43 281.399 180.727 281.399 141.62C281.399 102.513 249.433 70.8099 209.999 70.8099Z" fill="#D9D9D9"/>
</svg>
